<?xml version="1.0" encoding="iso-8859-1"?>
<!-- Generator: Adobe Illustrator 19.0.0, SVG Export Plug-In . SVG Version: 6.00 Build 0)  -->
<svg version="1.1" id="Layer_1" xmlns="http://www.w3.org/2000/svg" xmlns:xlink="http://www.w3.org/1999/xlink" x="0px" y="0px"
	 viewBox="0 0 512 512" style="enable-background:new 0 0 512 512;" xml:space="preserve">
<g>
	<g>
		<path d="M437.333,21.333H74.667C33.493,21.333,0,54.827,0,96v213.333C0,350.507,33.493,384,74.667,384h48.256l-36.821,92.032
			c-1.749,4.395-0.405,9.429,3.328,12.352c1.941,1.515,4.267,2.283,6.592,2.283c2.176,0,4.352-0.661,6.165-1.984L248.747,384
			h188.587C478.507,384,512,350.507,512,309.333V96C512,54.827,478.507,21.333,437.333,21.333z M490.688,309.355
			c0,29.397-23.936,53.333-53.333,53.333h-192c-2.219,0-4.416,0.683-6.208,1.984l-119.701,85.504l29.141-72.875
			c1.323-3.285,0.917-7.019-1.067-9.941c-1.984-2.923-5.291-4.693-8.832-4.693h-64c-29.397,0-53.333-23.936-53.333-53.333V96
			c0-29.397,23.936-53.333,53.333-53.333v0.021h362.667c29.397,0,53.333,23.936,53.333,53.333V309.355z"/>
	</g>
</g>
<g>
</g>
<g>
</g>
<g>
</g>
<g>
</g>
<g>
</g>
<g>
</g>
<g>
</g>
<g>
</g>
<g>
</g>
<g>
</g>
<g>
</g>
<g>
</g>
<g>
</g>
<g>
</g>
<g>
</g>
</svg>
