<svg height="464pt" viewBox="0 0 464 464" width="464pt" xmlns="http://www.w3.org/2000/svg"><path d="m232 0c-128.128906 0-232 103.871094-232 232s103.871094 232 232 232 232-103.871094 232-232-103.871094-232-232-232zm-57.535156 380.046875c-28.136719 28.074219-73.6875 28.074219-101.824219 0l-11.3125-11.3125c-28.078125-28.132813-28.078125-73.6875 0-101.824219l113.136719-113.132812c3.136718-3.03125 8.128906-2.988282 11.214844.097656 3.085937 3.085938 3.128906 8.074219.097656 11.214844l-113.136719 113.132812c-21.832031 21.886719-21.832031 57.316406 0 79.203125l11.3125 11.308594c21.890625 21.824219 57.308594 21.824219 79.199219 0l113.136718-113.132813c21.824219-21.890624 21.824219-57.3125 0-79.203124l-11.3125-11.308594c-3.03125-3.140625-2.988281-8.128906.097657-11.214844 3.085937-3.085938 8.074219-3.128906 11.214843-.097656l11.3125 11.3125c28.0625 28.136718 28.0625 73.683594 0 101.820312zm115.070312-69.824219c-3.136718 3.03125-8.128906 2.988282-11.214844-.097656-3.085937-3.085938-3.128906-8.074219-.097656-11.214844l113.136719-113.132812c21.832031-21.886719 21.832031-57.316406 0-79.203125l-11.3125-11.308594c-21.890625-21.824219-57.308594-21.824219-79.199219 0l-113.136718 113.132813c-21.824219 21.890624-21.824219 57.3125 0 79.203124l11.3125 11.308594c3.03125 3.140625 2.988281 8.128906-.097657 11.214844-3.085937 3.085938-8.074219 3.128906-11.214843.097656l-11.3125-11.3125c-28.0625-28.136718-28.0625-73.683594 0-101.820312l113.136718-113.136719c28.136719-28.078125 73.691406-28.078125 101.824219 0l11.3125 11.3125c28.078125 28.132813 28.078125 73.6875 0 101.824219zm0 0"/></svg>