<?xml version="1.0" encoding="UTF-8" standalone="no"?>
<svg
   xmlns:dc="http://purl.org/dc/elements/1.1/"
   xmlns:cc="http://creativecommons.org/ns#"
   xmlns:rdf="http://www.w3.org/1999/02/22-rdf-syntax-ns#"
   xmlns:svg="http://www.w3.org/2000/svg"
   xmlns="http://www.w3.org/2000/svg"
   xmlns:sodipodi="http://sodipodi.sourceforge.net/DTD/sodipodi-0.dtd"
   xmlns:inkscape="http://www.inkscape.org/namespaces/inkscape"
   version="1.1"
   id="svg10"
   width="500"
   height="712.95331"
   viewBox="0 0 499.99998 712.95332"
   sodipodi:docname="logo.svg"
   inkscape:version="1.0.1 (3bc2e813f5, 2020-09-07)">
  <metadata
     id="metadata16">
    <rdf:RDF>
      <cc:Work
         rdf:about="">
        <dc:format>image/svg+xml</dc:format>
        <dc:type
           rdf:resource="http://purl.org/dc/dcmitype/StillImage" />
        <dc:title></dc:title>
      </cc:Work>
    </rdf:RDF>
  </metadata>
  <defs
     id="defs14" />
  <sodipodi:namedview
     pagecolor="#ffffff"
     bordercolor="#666666"
     borderopacity="1"
     objecttolerance="10"
     gridtolerance="10"
     guidetolerance="10"
     inkscape:pageopacity="0"
     inkscape:pageshadow="2"
     inkscape:window-width="1920"
     inkscape:window-height="1017"
     id="namedview12"
     showgrid="false"
     inkscape:zoom="0.70518416"
     inkscape:cx="271.44559"
     inkscape:cy="419.70694"
     inkscape:window-x="-8"
     inkscape:window-y="-8"
     inkscape:window-maximized="1"
     inkscape:current-layer="g18"
     inkscape:document-rotation="0" />
  <g
     inkscape:groupmode="layer"
     inkscape:label="Image"
     id="g18"
     transform="translate(-3.8481656,-6.3602825)">
    <path
       id="path10"
       style="fill:#0d0d0d;stroke:none;stroke-width:0.450806"
       d="m 11.556215,283.51284 c -14.0438337,16.38761 0.04882,53.95883 -5.9326531,77.87816 -9.5731385,4.6986 23.2528071,48.84754 11.3163681,16.38949 -7.2457851,-26.89231 -4.913044,-69.42266 18.204853,-86.05609 14.834029,11.71371 6.921384,18.3572 2.094508,27.04416 13.24955,1.80465 19.963683,-18.96197 24.086653,3.70029 16.191522,8.67512 -23.171887,-43.01649 -0.810721,-23.81539 13.23663,6.10949 13.112791,21.01385 18.856702,30.92587 -8.210507,14.14278 4.369631,9.36095 10.025341,15.30106 7.628749,-11.45118 15.862864,-1.19645 17.683974,-13.24014 5.76831,-9.17002 5.69969,6.53433 8.10842,-10.61654 8.82065,-2.76945 4.86615,-12.22662 10.36336,-14.95928 -1.46425,-12.86639 -23.87635,-19.15933 3.69841,-20.48915 17.26337,-9.69423 42.01395,-29.52045 30.5457,-50.84905 -18.3201,-23.2602 -28.58788,-48.9245 -12.84154,-78.40406 22.00812,-28.79753 50.63333,3.62596 74.59002,0.0905 23.34893,-14.65093 41.71574,23.13769 66.99848,10.8849 15.85816,-18.19588 35.82078,-14.58586 54.46292,-9.19753 15.21101,7.30269 38.53597,11.40739 50.81507,6.06056 6.94555,0.81564 18.93672,-6.48309 28.21276,-2.87713 17.35787,6.40557 48.15309,9.59102 55.46306,29.83057 8.24932,18.94541 -3.7329,25.84139 -2.29457,42.49894 1.92311,21.7063 -4.45242,42.80269 -13.06684,62.52874 6.54443,9.04549 -9.27465,20.87172 0.90116,20.74742 1.52765,10.74535 -13.10074,6.64294 -19.44802,9.82998 -10.75547,3.45932 -21.41165,0.39153 -31.01694,-4.86865 -7.43124,11.62157 -8.6157,-0.2477 -14.29424,9.50052 -8.79647,4.07411 -5.0536,-4.52562 -10.9383,3.12835 -6.29244,0.30635 -5.31377,1.87827 -9.91276,6.31443 -4.47341,7.34704 -2.81833,26.42612 -2.70345,40.59278 -0.63374,11.61166 -2.41496,22.42806 0.90758,35.0656 -3.56686,10.84922 1.5779,15.6344 1.34529,23.56841 7.33042,18.06318 -0.74484,44.68899 -18.92441,34.35504 -19.66159,-9.73251 -50.38682,-6.88038 -69.16409,-23.53032 -0.59443,-13.67945 0.79372,-30.35526 -7.51133,-10.61615 -0.36537,10.10465 3.38162,36.11766 6.83553,30.01047 -1.73655,9.46093 -15.30214,4.09636 -14.76083,9.11184 -4.02148,-6.07567 -10.09487,-0.52609 -16.93399,-3.03217 -3.76147,-4.62594 -17.5223,-7.20576 -15.20985,-10.44395 -2.03266,-5.49412 -24.71815,-4.74694 -10.31905,-13.45144 1.84582,-4.58674 23.94122,-13.27317 11.05542,-13.6356 -7.04039,7.62723 -19.41024,7.41248 -27.25405,13.84255 -8.89437,5.23279 -12.86945,7.16292 -11.45046,10.76229 -2.75429,14.71338 -1.38889,27.31064 14.58229,21.73054 12.81021,8.09092 25.25594,25.9018 32.46548,29.44523 4.62764,10.00422 17.86325,11.61196 27.28175,10.36129 -4.54708,-0.9751 -3.21429,-17.91371 10.75792,-9.22738 10.20472,4.05733 21.79594,3.20049 31.32599,9.11159 8.32832,5.07821 28.65552,-6.16504 30.93998,12.17781 -5.18973,9.00222 -17.0307,1.75263 -3.00403,9.47168 5.18493,16.19464 37.22297,-3.10132 44.83284,-23.98133 7.19223,-16.09338 22.6673,-16.59645 21.09873,-9.66276 16.69981,-19.66356 27.38308,-16.75475 12.46561,6.02124 -12.14586,25.15578 -43.4942,32.19489 -57.36986,51.9785 -14.51615,10.49114 -18.42603,24.81399 -21.54227,36.40686 1.1949,11.4411 -9.56474,8.32439 -16.74364,16.59029 -4.79053,-0.53487 -17.65157,5.79987 -22.70119,0.97378 -14.36655,-4.94624 -31.45902,-0.44711 -46.92254,-11.39362 -15.82652,-0.54454 -30.64127,-22.05726 -44.78848,-18.58359 -10.26457,7.07162 -15.33477,-11.31164 -23.77935,2.99147 -8.23183,-4.85975 -15.52031,-9.05458 -26.58421,-18.86663 -0.23991,13.62678 -22.02264,-22.39185 -14.33825,3.01627 13.61189,19.37821 29.18794,23.53221 32.96205,46.1461 16.40287,24.52537 51.54686,13.62643 72.84402,27.58955 18.42404,0.45591 26.0198,12.1089 37.39815,9.84602 18.03937,12.97631 -18.27458,47.60312 -10.98011,53.77754 35.03569,-0.22166 29.68481,-44.54543 45.24052,-66.54401 14.28512,-30.12701 52.16761,-44.29878 68.38269,-76.36965 25.81401,-33.84002 54.82383,-67.79317 65.5692,-109.99966 4.58441,-18.08609 -7.38234,-22.44398 -5.58832,-2.62162 -11.07767,29.53224 -32.14313,0.89338 -45.62316,-9.17623 -23.28447,-6.19265 14.27605,20.74597 -1.03956,25.39141 -0.62363,6.4425 -13.83961,-2.62202 -17.73478,-5.69488 9.68012,-24.49404 -13.67599,-46.65501 -3.48028,-68.04394 2.48344,-13.23769 0.98296,-14.19084 13.84069,-6.07698 1.79643,-0.55638 6.32403,-5.72634 16.2238,-5.71156 -8.40034,-12.98828 26.89257,6.47542 31.13218,-0.76626 9.15624,5.98969 9.65726,15.77157 1.76022,20.3861 2.71669,3.35866 16.17661,45.84386 15.91822,14.44023 1.90487,-28.54805 -4.06377,-56.17815 8.70598,-83.11452 -2.39378,-30.83325 5.06667,-60.30669 10.59934,-90.75887 -0.10675,-29.47845 -7.99543,-59.5128 1.51171,-87.70464 12.63207,-20.9491 24.73575,-51.18985 2.61393,-70.613474 C 473.70856,72.149622 445.44838,52.544011 416.17733,45.368541 387.69736,42.547063 360.69508,33.157386 337.61057,14.971449 303.61367,2.7377637 265.30854,4.5915337 230.08768,13.946751 200.82348,21.513272 173.1111,31.311813 146.27973,45.293222 125.61248,68.276495 94.778315,75.673849 68.77996,91.072866 50.769833,114.35842 26.4586,133.52288 29.400274,166.34829 c 0.339064,31.6353 2.611661,63.6529 1.275409,95.35995 0.622413,12.12191 -26.1493871,8.74877 -19.119427,21.80462 M 454.92725,200.97421 c -0.9192,4.8243 0.30093,3.79586 0,0 z M 19.21608,279.90458 c 22.032959,-6.88688 -12.0849091,6.6297 -2.024992,-0.83341 z m 12.616249,-0.90207 c 1.36353,4.7863 -3.515903,0.008 0,0 z m 219.432611,22.10051 c -12.91851,5.453 -9.7081,30.23261 -19.82556,21.34864 -9.6996,3.22443 -22.61906,-1.31766 -22.37685,3.84825 -4.56931,-1.30529 -25.69885,-3.0365 -19.622,3.735 -3.78622,0.85597 -24.68737,-1.70298 -3.88507,5.57197 18.29443,7.4657 -22.408,-6.93139 -0.52586,6.08893 3.48109,4.94422 16.33841,4.86815 12.55562,8.0096 8.62979,1.09721 32.11454,8.9309 21.80902,-4.36559 6.43445,-5.13216 34.26437,-1.36308 51.54616,0.33994 16.14631,15.70165 -25.30884,19.56605 -25.0782,13.12922 -9.34831,-1.0936 -51.35615,-4.41702 -21.20109,0.80042 20.27976,5.28486 37.61395,12.00422 58.14445,3.73588 17.69962,-7.67093 8.78589,14.14938 22.52899,1.35309 6.2093,4.21877 7.47561,-3.11204 14.6266,-3.08296 -7.08616,-20.66162 14.7669,-3.81716 11.95766,-19.01754 9.52921,-8.822 -5.19996,-18.27831 -2.70348,-16.17978 -0.37459,-3.66575 -13.99765,-7.68595 -21.57224,-10.23502 -8.42998,-8.03435 -20.48992,-3.02114 -30.13258,-8.29733 -8.96802,-5.31448 -18.79047,0.72431 -26.24557,-6.78267 m -129.31657,7.21649 -0.45057,0.45103 z m 17.57266,2.7062 0.45057,0.45103 z m 4.95634,3.15721 c 1.9489,1.95085 1.49259,1.49405 0,0 z m -21.62784,1.80413 c -2.53442,6.64472 3.62107,4.102 0,0 z m 24.33132,0 c -14.19301,13.37344 -5.98174,14.43756 9.32554,15.17953 20.59347,9.63261 -14.01438,-13.37867 10.04945,-3.37741 13.96314,7.80783 -6.50664,-14.913 -14.77986,-10.11551 -1.68238,0.75119 -3.04912,-1.30678 -4.59513,-1.68659 m 165.81357,1.80412 -0.45057,0.45103 z m -195.10127,1.35309 -0.45058,0.45103 z m 202.31056,0 c 2.06884,3.44086 2.47628,-1.04215 0,0 z m -267.644681,0.45103 c -10.148163,5.0425 -13.963728,13.30176 -16.070722,23.90463 -2.555847,19.26511 12.190467,-10.3513 16.137652,6.42589 10.439641,-3.03122 1.22288,-23.51862 -0.06697,-30.33052 z m 265.391781,0 -0.45059,0.45103 z m -198.25534,2.25515 c 0.60565,4.43148 4.89394,-2.12524 0,0 z m 7.2093,0.90206 c 0.73309,5.58378 15.12957,2.49485 0,5e-5 m 118.05203,0.45103 c 0.46525,2.77041 -2.76766,-0.46568 0,0 z m 80.05325,0.75188 -0.15049,0.3004 z m -212.52387,0.1502 c 1.22926,2.04315 -3.31875,1.61443 0,0 z m 2.55343,0.1502 0.30009,0.15062 z m -1.80232,0.60166 -0.15049,0.3004 z m 213.27455,-0.15064 -0.15005,0.15064 z m 79.30213,-0.15019 0.45059,0.45103 z m 2.25291,1.80412 c 2.69391,-0.70122 -1.06492,3.54696 0,0 z m -77.19928,1.05225 0.3001,0.15065 z m 1.05121,0.30084 0.90116,0.90207 z m -2.2529,0.90207 -0.45058,0.45103 z m -131.11888,0.90206 c 4.36995,0.20254 0.62497,3.13001 0,0 z m 202.76113,0 -0.45057,0.45103 z m -68.03761,0.45103 -0.45058,0.45103 z m 2.70347,0.90206 0.45058,0.45102 z m -214.02565,3.15722 c 0.63738,-7.01576 -5.781,1.42999 0,0 z m 10.06282,-1.50327 0.15049,0.30038 z m 62.48061,-0.30084 -0.45059,0.45104 z m 138.77875,0.45104 -0.45058,0.45102 z m 56.32252,0.45102 -0.45058,0.45103 z m -128.4154,0.90205 c 13.74779,10.31361 -13.52422,8.23527 0,0 z m -145.08685,2.70619 c -0.92413,4.99406 2.89616,0.43503 0,0 z m 26.58424,4.96136 c 10.16304,1.61654 7.19533,-5.54405 0,0 z m 131.11888,-1.80414 c 0.46523,2.77041 -2.76766,-0.4657 0,0 z m -115.79913,0.90206 c 1.91177,2.87699 4.90473,0.3041 0,0 z m -22.52901,1.3531 c 1.94893,-1.95086 1.49253,-1.49403 0,0 z m 197.35417,-0.90207 c 0.20619,2.59247 4.0939,1.43817 0,0 z m -157.25252,1.80413 c -14.56657,-6.63142 -19.28547,12.54716 0,0 z m -86.962003,0 -0.450576,0.45104 z m 242.412203,0 0.90116,0.90206 z m -18.4738,12.17783 c 6.6033,7.4194 -31.38568,-0.50803 -6.81364,-5.56013 2.90458,-6.59511 13.52536,1.1181 6.81364,5.56013 z m 63.08124,-8.11854 c 2.14939,1.32972 -2.14941,1.32971 0,0 z m -223.03727,0.90206 c 3.64885,3.74967 6.71746,-2.44807 0,0 z m 67.13649,3.15721 c -5.53171,-1.3662 -8.48853,-7.8123 0,0 z m -80.65387,-0.45102 c 0.0742,11.98959 14.21053,-9.25855 0,0 z m 67.58705,-1.80413 c -2.01686,3.92225 -4.05925,-2.8957 0,0 z m 121.95721,1.65393 -0.15048,0.30038 z m 84.85913,4.66049 c -21.28893,-2.40149 25.825,-3.33022 0,0 z m -84.70908,-2.70618 0.45058,0.45103 z m -32.89235,0.90206 c 0.59772,1.90474 -4.77661,-1.52643 0,0 z m -163.41063,0.30084 0.15051,0.30037 z m 16.52141,3.3074 1.35174,-0.90206 z m 51.36617,-0.90206 c -0.45063,2.19615 4.67853,0.38603 0,0 z m 7.2093,0.45103 1.35174,0.90206 z m -65.78474,4.51032 c 1.6954,3.83908 1.83816,-0.9901 0,0 z m 126.61306,0.15019 0.15003,0.15064 z m -35.14526,3.45806 c 0.97961,0.97728 5.8478,0.35087 0,0 z m 168.96761,-0.45104 c 25.59814,0.23609 7.95066,14.24153 0,0 z m -174.37458,0.90206 c 1.30119,2.65038 4.70049,-2.20768 0,0 z m 4.35576,-0.30083 0.30008,0.15065 z m -178.73031,4.81114 c -2.5813,10.52073 -16.903449,12.4019 -24.569359,2.88989 -4.454103,3.27149 25.468211,26.82509 35.082859,24.57388 3.420111,-10.12076 -5.885428,-19.4501 -10.5135,-27.46377 z m 379.38859,0.90206 c -8.66883,21.49275 -19.83634,0.28313 0,0 z m -144.18568,0.45104 -0.45058,0.90206 z m 133.67228,1.2029 -0.1505,0.30038 z m -2.10286,8.26875 c 3.91819,1.75247 -0.76189,2.9312 0,0 z m 17.57264,9.02062 c 3.88204,6.03068 -5.88614,1.36593 0,0 z m 3.15408,0.45104 -0.4506,0.45102 z m 8.56103,6.3144 0.45056,0.45104 z m 0.90116,0.90206 c 3.09829,8.3759 6.92315,0.56121 0,0 z m -41.00281,5.86343 c 1.56462,8.11005 9.86875,1.89441 0,0 z m 47.3109,12.25314 c 9.90255,3.65805 -6.69417,8.03534 0,0 z M 34.986392,432.35304 c 5.457837,23.90622 9.556723,50.65637 9.174215,76.04437 14.258027,36.33453 11.870055,-13.7341 7.046624,-28.00958 -1.907524,-20.81617 -13.393278,-55.82767 21.186895,-43.26966 13.746569,14.26199 9.069135,-14.00722 -1.872496,-14.69123 -10.663928,6.33115 -21.190737,18.37108 -35.535351,9.9261 m 285.667901,-8.11856 c -5.23848,17.69065 14.45893,25.6662 10.43238,2.79127 -2.06851,-5.15417 -6.81506,-1.83198 -10.43238,-2.79127 z m -70.7411,11.27577 0.45059,1.35309 z m -8.11043,1.80413 c 7.7181,3.69548 0.66605,-2.73495 0,0 z m 4.0552,0 0.45058,0.45103 z m 4.50582,0 c -0.22868,2.69082 2.25625,2.2791 0,0 z m -4.50582,1.35308 c 0.93759,2.99176 1.66281,-1.23921 0,0 z m -3.60464,1.05091 -0.15004,0.15335 z m -4.95638,0.30218 c -1.23799,1.66448 2.98874,0.93854 0,0 z m 4.95638,0.45103 c 0.56427,1.84857 -4.82294,-0.41413 0,0 z m -7.96041,0.75324 0.15049,0.29767 z m 1.20171,0.14882 c 2.55794,1.9204 1.66459,1.24971 0,0 z m 7.20929,0 c 2.36848,2.71139 -4.45216,2.39971 0,0 z m -7.65988,0.90207 c -2.1494,1.32974 2.14938,1.32975 0,0 z m 86.06085,0.90206 0.45057,0.45103 z m -84.7091,1.80413 -0.45059,0.45103 z m -8.11046,9.47165 0.45057,0.45104 z M 90.858245,467.98449 c 4.99839,-4.92437 -2.812279,-8.42278 0,0 z m 142.833945,-3.60825 -0.45059,0.45102 z m 3.15406,0.90206 c 2.00974,0.79978 -3.56517,2.61113 0,0 z m 46.86036,4.05927 0.45059,0.45104 z m -190.595465,1.3531 c -2.1526,11.74636 -5.027079,16.37704 -1.2765,30.59343 -5.612857,14.09066 28.042965,25.57059 15.606965,0.70922 -6.35362,-10.57736 -6.80815,-23.82309 -14.330465,-31.30265 z m 160.406585,14.88402 c 5.25066,-3.34547 11.97792,2.92368 22.01731,1.23688 8.46854,-0.4401 15.96099,2.61232 22.92164,6.11853 9.62542,-2.12972 20.42501,4.98252 29.8574,4.8224 4.38745,2.57959 11.45116,5.51149 19.32136,1.33461 -0.14806,-1.70705 17.47328,-1.49256 13.57099,4.97984 -11.77774,6.44278 -31.51991,5.06911 -43.2275,3.07779 -2.89789,-3.66193 -19.55637,0.7319 -12.19391,-6.235 -6.75329,6.33643 -11.18844,-3.34231 -20.15154,-1.24436 -17.54643,-0.31413 -32.58047,-9.92857 -48.33664,-15.44379 5.91426,-5.37144 9.699,2.96443 16.22089,1.3531 z m -50.76553,-1.50194 0.1505,0.29768 z m 35.89637,-0.30219 0.45059,0.45103 z m -31.54061,0.90206 -0.45058,0.45103 z m -4.05522,0.90207 0.90116,1.35309 z m 11.11447,0.14883 0.30009,0.15336 z m -7.05925,2.55735 0.45058,0.45102 z m 226.64186,7.2165 -0.45056,0.45102 z m -85.15966,3.1572 0.45056,0.45104 z m 77.34975,0.3022 -0.15049,0.29769 z m -88.61427,0.59986 -0.45057,0.45104 z m -36.94759,2.25517 0.45058,0.45102 z m 82.30615,0.75322 -0.15049,0.29767 z m -1.65228,0.14885 c 2.03911,2.88046 -3.2176,4.55171 0,0 z m -291.975993,0.90206 c -1.23799,1.66445 2.988768,0.93854 0,0 z m 276.205713,0.14883 -0.15005,0.15336 z m -6.7587,1.20425 -0.45059,0.45104 z m -304.141696,17.5902 0.450574,0.45104 z m 54.970756,0.45104 c -5.69328,17.16863 21.9977,18.78613 2.93596,1.05414 z m -56.322499,4.05927 c 1.861955,4.03927 2.729303,-0.95582 0,0 z m 67.136449,17.36469 c -9.18209,16.82683 25.55728,17.42857 3.49294,1.58369 l -1.68219,-1.50201 z m 203.66231,7.44201 c -23.36602,-7.06012 -18.86527,10.86017 -1.58633,11.28876 20.302,1.85313 28.68671,-13.44757 11.19442,-14.49033 8.05862,-5.09364 -13.89424,-0.8726 -9.60809,3.20157 z m 20.72666,-5.41236 0.45059,0.45103 z m 4.9564,7.66751 c -1.23798,1.66448 2.98875,0.93855 0,0 z m 39.65107,7.21651 c 5.36355,5.99644 -10.02186,27.48049 -11.33974,14.88401 -3.30178,-7.25671 7.29501,-11.19704 11.33974,-14.88401 z m -80.65389,0.90206 c -2.14938,1.32973 2.1494,1.32972 0,0 z m 6.30814,0.90206 c -1.23797,1.66447 2.98876,0.93854 0,0 z m -174.37456,1.35309 c 1.32203,5.20834 7.49481,5.44189 0,0 z m 26.58423,26.61082 c -1.30139,6.67895 -6.85285,-0.74292 0,0 z m 186.54023,18.04124 c 2.14938,1.32974 -2.14939,1.32973 0,0 z m -56.32252,54.1237 -1.35173,0.90206 z" />
  </g>
</svg>
