<?xml version="1.0" encoding="utf-8"?>
<!-- Svg Vector Icons : http://www.onlinewebfonts.com/icon -->
<!DOCTYPE svg PUBLIC "-//W3C//DTD SVG 1.1//EN" "http://www.w3.org/Graphics/SVG/1.1/DTD/svg11.dtd">
<svg version="1.1" xmlns="http://www.w3.org/2000/svg" xmlns:xlink="http://www.w3.org/1999/xlink" x="0px" y="0px" viewBox="0 0 1000 1000" enable-background="new 0 0 1000 1000" xml:space="preserve">
<metadata> Svg Vector Icons : http://www.onlinewebfonts.com/icon </metadata>
<g><path d="M10,500c0,270.8,219.2,490,490,490c270.8,0,490-219.2,490-490c0-270.8-219.2-490-490-490C229.2,10,10,229.2,10,500z M215.5,431.7l218.7,0.3l0.3-213.6c0-37.8,29.4-68.3,65.5-68.3c36.1,0,65.5,30.5,65.5,68.3l0.3,213.6l218.7-0.3c36.1,0,65.5,30.7,65.5,68.5c0,37.8-29.4,68.5-65.5,68.5H565.8l-0.3,241.2c0,37.8-29.4,68.2-65.5,68.2c-36.1,0-65.5-30.4-65.5-68.2l-0.3-241.2H215.5c-36.1,0-65.5-30.7-65.5-68.5C150,462.4,179.4,431.7,215.5,431.7z"/></g>
</svg>