<svg width="150" height="138" viewBox="0 0 150 138" fill="none" xmlns="http://www.w3.org/2000/svg">
<path d="M128.125 0.0975342H21.8751C9.8124 0.0975342 0 9.91023 0 21.9726V84.4725C0 96.5352 9.8124 106.348 21.8751 106.348H36.0126L25.2252 133.31C24.7128 134.598 25.1065 136.073 26.2002 136.929C26.7688 137.373 27.4503 137.598 28.1314 137.598C28.7689 137.598 29.4064 137.404 29.9376 137.016L72.8751 106.348H128.125C140.188 106.348 150 96.5352 150 84.4725V21.9726C150 9.91023 140.188 0.0975342 128.125 0.0975342ZM143.756 84.479C143.756 93.0914 136.744 100.104 128.131 100.104H71.8813C71.2312 100.104 70.5876 100.304 70.0626 100.685L34.9939 125.735L43.5313 104.385C43.9189 103.423 43.8 102.329 43.2188 101.473C42.6375 100.616 41.6687 100.098 40.6313 100.098H21.8813C13.2688 100.098 6.25635 93.0852 6.25635 84.4728V21.9726C6.25635 13.3602 13.2688 6.34773 21.8813 6.34773V6.35388H128.131C136.744 6.35388 143.756 13.3664 143.756 21.9788V84.479Z" fill="black"/>
<path d="M48.6788 47.4609L45.8663 43.5058C45.5499 43.541 45.2217 43.5586 44.8819 43.5586H41.5772V47.4609H40.2764V35.1562H44.8819C46.4522 35.1562 47.6827 35.5312 48.5733 36.2812C49.4639 37.0312 49.9092 38.0625 49.9092 39.375C49.9092 40.3359 49.6632 41.1504 49.171 41.8183C48.6905 42.4746 47.9991 42.9492 47.0967 43.2422L50.1026 47.4609H48.6788ZM44.8467 42.4511C46.0655 42.4511 46.9971 42.1816 47.6417 41.6426C48.2862 41.1035 48.6085 40.3476 48.6085 39.375C48.6085 38.3789 48.2862 37.6172 47.6417 37.0898C46.9971 36.5508 46.0655 36.2812 44.8467 36.2812H41.5772V42.4511H44.8467Z" fill="black"/>
<path d="M60.7664 43.2246H53.032C53.1024 44.1856 53.4715 44.9649 54.1395 45.5625C54.8074 46.1484 55.6512 46.4414 56.6707 46.4414C57.2449 46.4414 57.7723 46.3418 58.2527 46.1426C58.7332 45.9316 59.1492 45.627 59.5008 45.2285L60.2039 46.0371C59.7938 46.5293 59.2781 46.9043 58.657 47.1621C58.0477 47.4199 57.3738 47.5488 56.6356 47.5488C55.6863 47.5488 54.8426 47.3496 54.1043 46.9512C53.3777 46.541 52.8094 45.9785 52.3992 45.2637C51.9891 44.5488 51.784 43.7402 51.784 42.8379C51.784 41.9356 51.9774 41.127 52.3641 40.4121C52.7625 39.6973 53.3016 39.1406 53.9813 38.7422C54.6727 38.3438 55.4461 38.1445 56.3016 38.1445C57.157 38.1445 57.9246 38.3438 58.6043 38.7422C59.284 39.1406 59.8172 39.6973 60.2039 40.4121C60.5906 41.1152 60.784 41.9238 60.784 42.8379L60.7664 43.2246ZM56.3016 39.2168C55.4109 39.2168 54.6609 39.5039 54.0516 40.0781C53.4539 40.6406 53.1141 41.3789 53.032 42.293H59.5887C59.5066 41.3789 59.1609 40.6406 58.5516 40.0781C57.9539 39.5039 57.2039 39.2168 56.3016 39.2168Z" fill="black"/>
<path d="M71.8848 38.2148V46.3359C71.8848 47.9063 71.4981 49.0664 70.7247 49.8164C69.963 50.5781 68.8087 50.959 67.2618 50.959C66.4063 50.959 65.5919 50.8301 64.8184 50.5723C64.0567 50.3262 63.4356 49.9805 62.9551 49.5352L63.588 48.5859C64.0333 48.9844 64.5723 49.2949 65.2051 49.5176C65.8497 49.7402 66.5235 49.8516 67.2266 49.8516C68.3985 49.8516 69.2598 49.5762 69.8106 49.0254C70.3614 48.4863 70.6368 47.6426 70.6368 46.4941V45.3164C70.2501 45.9023 69.7403 46.3477 69.1075 46.6523C68.4864 46.957 67.795 47.1094 67.0333 47.1094C66.1661 47.1094 65.3751 46.9219 64.6602 46.5469C63.9571 46.1602 63.4005 45.627 62.9903 44.9473C62.5919 44.2559 62.3926 43.4766 62.3926 42.6094C62.3926 41.7422 62.5919 40.9688 62.9903 40.2891C63.4005 39.6094 63.9571 39.082 64.6602 38.707C65.3634 38.332 66.1544 38.1445 67.0333 38.1445C67.8184 38.1445 68.5274 38.3027 69.1602 38.6191C69.793 38.9356 70.3028 39.3926 70.6895 39.9902V38.2148H71.8848ZM67.1563 46.002C67.8243 46.002 68.4278 45.8613 68.9669 45.5801C69.5059 45.2871 69.9219 44.8828 70.2149 44.3672C70.5196 43.8516 70.6719 43.2656 70.6719 42.6094C70.6719 41.9531 70.5196 41.3731 70.2149 40.8691C69.9219 40.3535 69.5059 39.9551 68.9669 39.6738C68.4395 39.3809 67.836 39.2344 67.1563 39.2344C66.4883 39.2344 65.8848 39.375 65.3458 39.6563C64.8184 39.9375 64.4024 40.3359 64.0977 40.8516C63.8048 41.3672 63.6583 41.9531 63.6583 42.6094C63.6583 43.2656 63.8048 43.8516 64.0977 44.3672C64.4024 44.8828 64.8184 45.2871 65.3458 45.5801C65.8848 45.8613 66.4883 46.002 67.1563 46.002Z" fill="black"/>
<path d="M75.375 38.2148H76.623V47.4609H75.375V38.2148ZM76.0078 36.1934C75.75 36.1934 75.5332 36.1055 75.3574 35.9297C75.1816 35.7539 75.0937 35.543 75.0937 35.2969C75.0937 35.0625 75.1816 34.8574 75.3574 34.6816C75.5332 34.5058 75.75 34.418 76.0078 34.418C76.2656 34.418 76.4824 34.5058 76.6582 34.6816C76.8339 34.8457 76.9218 35.0449 76.9218 35.2793C76.9218 35.5371 76.8339 35.7539 76.6582 35.9297C76.4824 36.1055 76.2656 36.1934 76.0078 36.1934Z" fill="black"/>
<path d="M82.5742 47.5488C81.8242 47.5488 81.1035 47.4434 80.4121 47.2324C79.7324 47.0098 79.1992 46.7344 78.8124 46.4063L79.3749 45.4219C79.7617 45.7266 80.248 45.9785 80.8339 46.1777C81.4199 46.3652 82.0292 46.459 82.6621 46.459C83.5058 46.459 84.1269 46.3301 84.5253 46.0723C84.9355 45.8027 85.1406 45.4277 85.1406 44.9473C85.1406 44.6074 85.0292 44.3438 84.8066 44.1563C84.5839 43.957 84.3027 43.8106 83.9628 43.7168C83.623 43.6113 83.1718 43.5117 82.6093 43.418C81.8593 43.2773 81.2558 43.1367 80.7988 42.9961C80.3417 42.8438 79.9492 42.5918 79.621 42.2402C79.3046 41.8887 79.1464 41.4023 79.1464 40.7813C79.1464 40.0078 79.4687 39.375 80.1132 38.8828C80.7578 38.3906 81.6542 38.1445 82.8027 38.1445C83.4003 38.1445 83.998 38.2266 84.5956 38.3906C85.1933 38.543 85.6855 38.7481 86.0722 39.0059L85.5273 40.0078C84.7656 39.4805 83.8574 39.2168 82.8027 39.2168C82.0058 39.2168 81.4023 39.3574 80.9921 39.6387C80.5937 39.9199 80.3945 40.2891 80.3945 40.7461C80.3945 41.0977 80.5058 41.3789 80.7285 41.5899C80.9628 41.8008 81.2499 41.959 81.5898 42.0645C81.9296 42.1582 82.3984 42.2578 82.996 42.3633C83.7343 42.5039 84.3261 42.6445 84.7714 42.7852C85.2167 42.9258 85.5976 43.166 85.914 43.5059C86.2304 43.8457 86.3886 44.3145 86.3886 44.9121C86.3886 45.7207 86.0488 46.3652 85.3691 46.8457C84.7011 47.3145 83.7695 47.5488 82.5742 47.5488Z" fill="black"/>
<path d="M93.5652 46.8984C93.3308 47.1093 93.0378 47.2734 92.6862 47.3906C92.3464 47.496 91.989 47.5488 91.614 47.5488C90.7468 47.5488 90.0788 47.3144 89.6101 46.8456C89.1413 46.3769 88.907 45.7148 88.907 44.8593V39.2695H87.2546V38.2148H88.907V36.1933H90.155V38.2148H92.9675V39.2695H90.155V44.789C90.155 45.3398 90.2898 45.7617 90.5593 46.0546C90.8406 46.3359 91.239 46.4765 91.7546 46.4765C92.0124 46.4765 92.2585 46.4355 92.4929 46.3535C92.739 46.2714 92.9499 46.1542 93.1257 46.0019L93.5652 46.8984Z" fill="black"/>
<path d="M103.562 43.2246H95.8272C95.8975 44.1856 96.2666 44.9649 96.9346 45.5625C97.6026 46.1484 98.4463 46.4414 99.4658 46.4414C100.04 46.4414 100.567 46.3418 101.048 46.1426C101.528 45.9316 101.944 45.627 102.296 45.2285L102.999 46.0371C102.589 46.5293 102.073 46.9043 101.452 47.1621C100.843 47.4199 100.169 47.5488 99.4307 47.5488C98.4815 47.5488 97.6377 47.3496 96.8994 46.9512C96.1729 46.541 95.6045 45.9785 95.1944 45.2637C94.7842 44.5488 94.5791 43.7402 94.5791 42.8379C94.5791 41.9356 94.7725 41.127 95.1592 40.4121C95.5576 39.6973 96.0967 39.1406 96.7764 38.7422C97.4678 38.3438 98.2412 38.1445 99.0967 38.1445C99.9522 38.1445 100.72 38.3438 101.399 38.7422C102.079 39.1406 102.612 39.6973 102.999 40.4121C103.386 41.1152 103.579 41.9238 103.579 42.8379L103.562 43.2246ZM99.0967 39.2168C98.2061 39.2168 97.4561 39.5039 96.8467 40.0781C96.249 40.6406 95.9092 41.3789 95.8272 42.293H102.384C102.302 41.3789 101.956 40.6406 101.347 40.0781C100.749 39.5039 99.999 39.2168 99.0967 39.2168Z" fill="black"/>
<path d="M107.315 40.0254C107.608 39.4043 108.041 38.9356 108.616 38.6191C109.202 38.3027 109.922 38.1445 110.778 38.1445V39.3574L110.479 39.3398C109.506 39.3398 108.744 39.6387 108.194 40.2363C107.643 40.834 107.368 41.6719 107.368 42.75V47.4609H106.119V38.2148H107.315V40.0254Z" fill="black"/>
<path d="M59.9543 56.7715C59.4153 56.7715 59.0051 56.918 58.7239 57.211C58.4543 57.5039 58.3196 57.9375 58.3196 58.5117V59.6016H61.1672V60.6563H58.3547V68.8477H57.1067V60.6563H55.4543V59.6016H57.1067V58.459C57.1067 57.6152 57.3469 56.9473 57.8274 56.4551C58.3196 55.9629 59.011 55.7168 59.9016 55.7168C60.2532 55.7168 60.593 55.7695 60.9211 55.875C61.2493 55.9688 61.5247 56.1094 61.7473 56.2969L61.3254 57.2285C60.9622 56.9238 60.5051 56.7715 59.9543 56.7715ZM64.261 59.6016H65.509V68.8477H64.261V59.6016ZM64.8938 57.5801C64.636 57.5801 64.4192 57.4922 64.2434 57.3164C64.0676 57.1406 63.9797 56.9297 63.9797 56.6836C63.9797 56.4492 64.0676 56.2442 64.2434 56.0684C64.4192 55.8926 64.636 55.8047 64.8938 55.8047C65.1516 55.8047 65.3684 55.8926 65.5442 56.0684C65.72 56.2324 65.8079 56.4317 65.8079 56.666C65.8079 56.9238 65.72 57.1406 65.5442 57.3164C65.3684 57.4922 65.1516 57.5801 64.8938 57.5801Z" fill="black"/>
<path d="M70.193 61.4121C70.486 60.791 70.9195 60.3223 71.4938 60.0059C72.0797 59.6895 72.8004 59.5313 73.6559 59.5313V60.7441L73.3571 60.7266C72.3844 60.7266 71.6227 61.0254 71.0719 61.6231C70.5211 62.2207 70.2457 63.0586 70.2457 64.1367V68.8477H68.9977V59.6016H70.193V61.4121Z" fill="black"/>
<path d="M78.4629 68.9356C77.7129 68.9356 76.9922 68.8301 76.3008 68.6192C75.6211 68.3965 75.0879 68.1211 74.7012 67.793L75.2637 66.8086C75.6504 67.1133 76.1367 67.3652 76.7227 67.5645C77.3086 67.752 77.918 67.8457 78.5508 67.8457C79.3945 67.8457 80.0156 67.7168 80.4141 67.459C80.8242 67.1895 81.0293 66.8145 81.0293 66.334C81.0293 65.9942 80.918 65.7305 80.6953 65.543C80.4727 65.3438 80.1914 65.1973 79.8516 65.1035C79.5117 64.9981 79.0606 64.8984 78.4981 64.8047C77.7481 64.6641 77.1445 64.5234 76.6875 64.3828C76.2305 64.2305 75.8379 63.9785 75.5098 63.627C75.1934 63.2754 75.0352 62.7891 75.0352 62.168C75.0352 61.3945 75.3574 60.7617 76.002 60.2695C76.6465 59.7774 77.543 59.5313 78.6914 59.5313C79.2891 59.5313 79.8867 59.6133 80.4844 59.7773C81.0821 59.9297 81.5742 60.1348 81.961 60.3926L81.416 61.3945C80.6543 60.8672 79.7461 60.6035 78.6914 60.6035C77.8945 60.6035 77.291 60.7441 76.8809 61.0254C76.4824 61.3066 76.2832 61.6758 76.2832 62.1328C76.2832 62.4844 76.3945 62.7656 76.6172 62.9766C76.8516 63.1875 77.1387 63.3457 77.4785 63.4512C77.8184 63.5449 78.2871 63.6445 78.8848 63.75C79.6231 63.8906 80.2149 64.0313 80.6602 64.1719C81.1055 64.3125 81.4864 64.5527 81.8028 64.8926C82.1192 65.2324 82.2774 65.7012 82.2774 66.2988C82.2774 67.1074 81.9375 67.752 81.2578 68.2324C80.5899 68.7012 79.6582 68.9356 78.4629 68.9356Z" fill="black"/>
<path d="M89.4536 68.2851C89.2192 68.496 88.9262 68.6601 88.5747 68.7773C88.2348 68.8827 87.8774 68.9355 87.5024 68.9355C86.6352 68.9355 85.9673 68.7011 85.4985 68.2323C85.0298 67.7636 84.7954 67.1015 84.7954 66.246V60.6562H83.1431V59.6015H84.7954V57.58H86.0434V59.6015H88.8559V60.6562H86.0434V66.1757C86.0434 66.7265 86.1782 67.1484 86.4477 67.4413C86.729 67.7226 87.1274 67.8632 87.643 67.8632C87.9009 67.8632 88.1469 67.8222 88.3813 67.7402C88.6274 67.6581 88.8384 67.5409 89.0141 67.3886L89.4536 68.2851Z" fill="black"/>
<path d="M91.5322 56.5429H93.0088L92.7451 65.1562H91.7783L91.5322 56.5429ZM92.2705 68.9355C92.0127 68.9355 91.79 68.8476 91.6025 68.6718C91.4267 68.4843 91.3388 68.2675 91.3388 68.0215C91.3388 67.7636 91.4267 67.5527 91.6025 67.3886C91.7783 67.2129 92.001 67.125 92.2705 67.125C92.5283 67.125 92.7451 67.2129 92.9209 67.3886C93.0967 67.5527 93.1845 67.7636 93.1845 68.0215C93.1845 68.2675 93.0967 68.4843 92.9209 68.6718C92.7451 68.8476 92.5283 68.9355 92.2705 68.9355Z" fill="black"/>
</svg>
