<svg height="512pt" viewBox="0 -21 512.016 512" width="512pt" xmlns="http://www.w3.org/2000/svg"><path d="m320 405.339844c-70.59375 0-128-57.40625-128-128 0-70.589844 57.40625-128 128-128s128 57.410156 128 128c0 70.59375-57.40625 128-128 128zm0-224c-52.929688 0-96 43.074218-96 96 0 52.929687 43.070312 96 96 96s96-43.070313 96-96c0-52.925782-43.070312-96-96-96zm0 0"/><path d="m496 469.339844c-4.097656 0-8.191406-1.554688-11.308594-4.691406l-96.851562-96.855469c-6.25-6.25-6.25-16.382813 0-22.632813s16.382812-6.25 22.636718 0l96.851563 96.851563c6.25 6.253906 6.25 16.386719 0 22.636719-3.136719 3.136718-7.230469 4.691406-11.328125 4.691406zm0 0"/><path d="m149.546875 298.675781h-.214844c-82.34375 0-149.332031-66.988281-149.332031-149.335937 0-39.914063 15.53125-77.394532 43.734375-105.597656 28.203125-28.203126 65.683594-43.7343755 105.597656-43.7343755h213.335938c82.34375 0 149.332031 66.9882815 149.332031 149.3320315 0 25.835937-6.699219 51.246094-19.390625 73.429687-4.394531 7.679688-14.167969 10.347657-21.824219 5.953125-7.679687-4.394531-10.347656-14.164062-5.953125-21.824218 9.921875-17.363282 15.167969-37.269532 15.167969-57.558594 0-64.703125-52.628906-117.332032-117.332031-117.332032h-213.335938c-31.359375 0-60.820312 12.203126-82.984375 34.347657-22.167968 22.144531-34.347656 51.625-34.347656 82.984375 0 64.707031 52.628906 117.335937 117.332031 117.335937 8.832031 0 16.109375 7.167969 16.109375 16s-7.0625 16-15.894531 16zm0 0"/></svg>