<svg width="150" height="138" viewBox="0 0 150 138" fill="none" xmlns="http://www.w3.org/2000/svg">
<path d="M128.125 0.0975342H21.8751C9.8124 0.0975342 0 9.91023 0 21.9726V84.4725C0 96.5352 9.8124 106.348 21.8751 106.348H36.0126L25.2252 133.31C24.7128 134.598 25.1065 136.073 26.2002 136.929C26.7688 137.373 27.4503 137.598 28.1314 137.598C28.7689 137.598 29.4064 137.404 29.9376 137.016L72.8751 106.348H128.125C140.188 106.348 150 96.5352 150 84.4725V21.9726C150 9.91023 140.188 0.0975342 128.125 0.0975342ZM143.756 84.479C143.756 93.0914 136.744 100.104 128.131 100.104H71.8813C71.2312 100.104 70.5876 100.304 70.0626 100.685L34.9939 125.735L43.5313 104.385C43.9189 103.423 43.8 102.329 43.2188 101.473C42.6375 100.616 41.6687 100.098 40.6313 100.098H21.8813C13.2688 100.098 6.25635 93.0852 6.25635 84.4728V21.9726C6.25635 13.3602 13.2688 6.34773 21.8813 6.34773V6.35388H128.131C136.744 6.35388 143.756 13.3664 143.756 21.9788V84.479Z" fill="black"/>
<path d="M48.6788 47.4609L45.8663 43.5058C45.5499 43.541 45.2217 43.5586 44.8819 43.5586H41.5772V47.4609H40.2764V35.1562H44.8819C46.4522 35.1562 47.6827 35.5312 48.5733 36.2812C49.4639 37.0312 49.9092 38.0625 49.9092 39.375C49.9092 40.3359 49.6632 41.1504 49.171 41.8183C48.6905 42.4746 47.9991 42.9492 47.0967 43.2422L50.1026 47.4609H48.6788ZM44.8467 42.4511C46.0655 42.4511 46.9971 42.1816 47.6417 41.6426C48.2862 41.1035 48.6085 40.3476 48.6085 39.375C48.6085 38.3789 48.2862 37.6172 47.6417 37.0898C46.9971 36.5508 46.0655 36.2812 44.8467 36.2812H41.5772V42.4511H44.8467Z" fill="black"/>
<path d="M60.7663 43.2246H53.032C53.1023 44.1856 53.4714 44.9649 54.1394 45.5625C54.8074 46.1484 55.6511 46.4414 56.6706 46.4414C57.2449 46.4414 57.7722 46.3418 58.2527 46.1426C58.7331 45.9316 59.1491 45.627 59.5007 45.2285L60.2038 46.0371C59.7937 46.5293 59.2781 46.9043 58.657 47.1621C58.0476 47.4199 57.3738 47.5488 56.6355 47.5488C55.6863 47.5488 54.8425 47.3496 54.1042 46.9512C53.3777 46.541 52.8093 45.9785 52.3991 45.2637C51.989 44.5488 51.7839 43.7402 51.7839 42.8379C51.7839 41.9356 51.9773 41.127 52.364 40.4121C52.7624 39.6973 53.3015 39.1406 53.9812 38.7422C54.6726 38.3438 55.446 38.1445 56.3015 38.1445C57.157 38.1445 57.9245 38.3438 58.6042 38.7422C59.2839 39.1406 59.8171 39.6973 60.2038 40.4121C60.5905 41.1152 60.7839 41.9238 60.7839 42.8379L60.7663 43.2246ZM56.3015 39.2168C55.4109 39.2168 54.6609 39.5039 54.0515 40.0781C53.4538 40.6406 53.114 41.3789 53.032 42.293H59.5886C59.5066 41.3789 59.1609 40.6406 58.5515 40.0781C57.9538 39.5039 57.2038 39.2168 56.3015 39.2168Z" fill="black"/>
<path d="M71.8848 38.2148V46.3359C71.8848 47.9063 71.4981 49.0664 70.7247 49.8164C69.963 50.5781 68.8087 50.959 67.2618 50.959C66.4063 50.959 65.5919 50.8301 64.8184 50.5723C64.0567 50.3262 63.4356 49.9805 62.9551 49.5352L63.588 48.5859C64.0333 48.9844 64.5723 49.2949 65.2051 49.5176C65.8497 49.7402 66.5235 49.8516 67.2266 49.8516C68.3985 49.8516 69.2598 49.5762 69.8106 49.0254C70.3614 48.4863 70.6368 47.6426 70.6368 46.4941V45.3164C70.2501 45.9023 69.7403 46.3477 69.1075 46.6523C68.4864 46.957 67.795 47.1094 67.0333 47.1094C66.1661 47.1094 65.3751 46.9219 64.6602 46.5469C63.9571 46.1602 63.4005 45.627 62.9903 44.9473C62.5919 44.2559 62.3926 43.4766 62.3926 42.6094C62.3926 41.7422 62.5919 40.9688 62.9903 40.2891C63.4005 39.6094 63.9571 39.082 64.6602 38.707C65.3634 38.332 66.1544 38.1445 67.0333 38.1445C67.8184 38.1445 68.5274 38.3027 69.1602 38.6191C69.793 38.9356 70.3028 39.3926 70.6895 39.9902V38.2148H71.8848ZM67.1563 46.002C67.8243 46.002 68.4278 45.8613 68.9669 45.5801C69.5059 45.2871 69.9219 44.8828 70.2149 44.3672C70.5196 43.8516 70.6719 43.2656 70.6719 42.6094C70.6719 41.9531 70.5196 41.3731 70.2149 40.8691C69.9219 40.3535 69.5059 39.9551 68.9669 39.6738C68.4395 39.3809 67.836 39.2344 67.1563 39.2344C66.4883 39.2344 65.8848 39.375 65.3458 39.6563C64.8184 39.9375 64.4024 40.3359 64.0977 40.8516C63.8048 41.3672 63.6583 41.9531 63.6583 42.6094C63.6583 43.2656 63.8048 43.8516 64.0977 44.3672C64.4024 44.8828 64.8184 45.2871 65.3458 45.5801C65.8848 45.8613 66.4883 46.002 67.1563 46.002Z" fill="black"/>
<path d="M75.375 38.2148H76.623V47.4609H75.375V38.2148ZM76.0078 36.1934C75.75 36.1934 75.5332 36.1055 75.3574 35.9297C75.1816 35.7539 75.0937 35.543 75.0937 35.2969C75.0937 35.0625 75.1816 34.8574 75.3574 34.6816C75.5332 34.5058 75.75 34.418 76.0078 34.418C76.2656 34.418 76.4824 34.5058 76.6582 34.6816C76.8339 34.8457 76.9218 35.0449 76.9218 35.2793C76.9218 35.5371 76.8339 35.7539 76.6582 35.9297C76.4824 36.1055 76.2656 36.1934 76.0078 36.1934Z" fill="black"/>
<path d="M82.5742 47.5488C81.8242 47.5488 81.1035 47.4434 80.4121 47.2324C79.7324 47.0098 79.1992 46.7344 78.8124 46.4063L79.3749 45.4219C79.7617 45.7266 80.248 45.9785 80.8339 46.1777C81.4199 46.3652 82.0292 46.459 82.6621 46.459C83.5058 46.459 84.1269 46.3301 84.5253 46.0723C84.9355 45.8027 85.1406 45.4277 85.1406 44.9473C85.1406 44.6074 85.0292 44.3438 84.8066 44.1563C84.5839 43.957 84.3027 43.8106 83.9628 43.7168C83.623 43.6113 83.1718 43.5117 82.6093 43.418C81.8593 43.2773 81.2558 43.1367 80.7988 42.9961C80.3417 42.8438 79.9492 42.5918 79.621 42.2402C79.3046 41.8887 79.1464 41.4023 79.1464 40.7813C79.1464 40.0078 79.4687 39.375 80.1132 38.8828C80.7578 38.3906 81.6542 38.1445 82.8027 38.1445C83.4003 38.1445 83.998 38.2266 84.5956 38.3906C85.1933 38.543 85.6855 38.7481 86.0722 39.0059L85.5273 40.0078C84.7656 39.4805 83.8574 39.2168 82.8027 39.2168C82.0058 39.2168 81.4023 39.3574 80.9921 39.6387C80.5937 39.9199 80.3945 40.2891 80.3945 40.7461C80.3945 41.0977 80.5058 41.3789 80.7285 41.5899C80.9628 41.8008 81.2499 41.959 81.5898 42.0645C81.9296 42.1582 82.3984 42.2578 82.996 42.3633C83.7343 42.5039 84.3261 42.6445 84.7714 42.7852C85.2167 42.9258 85.5976 43.166 85.914 43.5059C86.2304 43.8457 86.3886 44.3145 86.3886 44.9121C86.3886 45.7207 86.0488 46.3652 85.3691 46.8457C84.7011 47.3145 83.7695 47.5488 82.5742 47.5488Z" fill="black"/>
<path d="M93.5651 46.8984C93.3307 47.1093 93.0377 47.2734 92.6862 47.3906C92.3463 47.496 91.9889 47.5488 91.6139 47.5488C90.7467 47.5488 90.0787 47.3144 89.61 46.8456C89.1412 46.3769 88.9069 45.7148 88.9069 44.8593V39.2695H87.2545V38.2148H88.9069V36.1933H90.1549V38.2148H92.9674V39.2695H90.1549V44.789C90.1549 45.3398 90.2897 45.7617 90.5592 46.0546C90.8405 46.3359 91.2389 46.4765 91.7545 46.4765C92.0123 46.4765 92.2584 46.4355 92.4928 46.3535C92.7389 46.2714 92.9498 46.1542 93.1256 46.0019L93.5651 46.8984Z" fill="black"/>
<path d="M103.561 43.2246H95.8271C95.8974 44.1856 96.2665 44.9649 96.9345 45.5625C97.6025 46.1484 98.4462 46.4414 99.4658 46.4414C100.04 46.4414 100.567 46.3418 101.048 46.1426C101.528 45.9316 101.944 45.627 102.296 45.2285L102.999 46.0371C102.589 46.5293 102.073 46.9043 101.452 47.1621C100.843 47.4199 100.169 47.5488 99.4306 47.5488C98.4814 47.5488 97.6376 47.3496 96.8994 46.9512C96.1728 46.541 95.6044 45.9785 95.1943 45.2637C94.7841 44.5488 94.579 43.7402 94.579 42.8379C94.579 41.9356 94.7724 41.127 95.1591 40.4121C95.5575 39.6973 96.0966 39.1406 96.7763 38.7422C97.4677 38.3438 98.2411 38.1445 99.0966 38.1445C99.9521 38.1445 100.72 38.3438 101.399 38.7422C102.079 39.1406 102.612 39.6973 102.999 40.4121C103.386 41.1152 103.579 41.9238 103.579 42.8379L103.561 43.2246ZM99.0966 39.2168C98.206 39.2168 97.456 39.5039 96.8466 40.0781C96.249 40.6406 95.9091 41.3789 95.8271 42.293H102.384C102.302 41.3789 101.956 40.6406 101.347 40.0781C100.749 39.5039 99.999 39.2168 99.0966 39.2168Z" fill="black"/>
<path d="M107.315 40.0254C107.608 39.4043 108.041 38.9356 108.616 38.6191C109.202 38.3027 109.922 38.1445 110.778 38.1445V39.3574L110.479 39.3398C109.506 39.3398 108.744 39.6387 108.194 40.2363C107.643 40.834 107.368 41.6719 107.368 42.75V47.4609H106.119V38.2148H107.315V40.0254Z" fill="black"/>
<path d="M42.9204 68.9356C42.1704 68.9356 41.4497 68.8301 40.7583 68.6192C40.0786 68.3965 39.5454 68.1211 39.1587 67.793L39.7212 66.8086C40.1079 67.1133 40.5943 67.3652 41.1802 67.5645C41.7661 67.752 42.3755 67.8457 43.0083 67.8457C43.8521 67.8457 44.4732 67.7168 44.8716 67.459C45.2818 67.1895 45.4868 66.8145 45.4868 66.334C45.4868 65.9942 45.3755 65.7305 45.1529 65.543C44.9302 65.3438 44.6489 65.1973 44.3091 65.1035C43.9693 64.9981 43.5181 64.8984 42.9556 64.8047C42.2056 64.6641 41.6021 64.5234 41.145 64.3828C40.688 64.2305 40.2954 63.9785 39.9673 63.627C39.6509 63.2754 39.4927 62.7891 39.4927 62.168C39.4927 61.3945 39.815 60.7617 40.4595 60.2695C41.104 59.7774 42.0005 59.5313 43.1489 59.5313C43.7466 59.5313 44.3443 59.6133 44.9419 59.7773C45.5396 59.9297 46.0318 60.1348 46.4185 60.3926L45.8736 61.3945C45.1118 60.8672 44.2036 60.6035 43.1489 60.6035C42.3521 60.6035 41.7486 60.7441 41.3384 61.0254C40.94 61.3066 40.7407 61.6758 40.7407 62.1328C40.7407 62.4844 40.8521 62.7656 41.0747 62.9766C41.3091 63.1875 41.5962 63.3457 41.9361 63.4512C42.2759 63.5449 42.7447 63.6445 43.3423 63.75C44.0806 63.8906 44.6724 64.0313 45.1177 64.1719C45.563 64.3125 45.9439 64.5527 46.2603 64.8926C46.5767 65.2324 46.7349 65.7012 46.7349 66.2988C46.7349 67.1074 46.395 67.752 45.7154 68.2324C45.0474 68.7012 44.1157 68.9356 42.9204 68.9356Z" fill="black"/>
<path d="M57.3742 59.6016V68.8477H56.1789V67.1602C55.8507 67.7227 55.3996 68.1621 54.8253 68.4785C54.2511 68.7832 53.5949 68.9356 52.8566 68.9356C51.6496 68.9356 50.6945 68.6016 49.9914 67.9336C49.3 67.2539 48.9543 66.2637 48.9543 64.9629V59.6016H50.2023V64.8399C50.2023 65.8125 50.4425 66.5508 50.923 67.0547C51.4035 67.5586 52.089 67.8106 52.9796 67.8106C53.9523 67.8106 54.7199 67.5176 55.2824 66.9317C55.8449 66.334 56.1261 65.5078 56.1261 64.4531V59.6016H57.3742Z" fill="black"/>
<path d="M64.7016 68.9356C63.7876 68.9356 62.9673 68.7363 62.2407 68.3379C61.5259 67.9395 60.9634 67.3828 60.5532 66.668C60.143 65.9414 59.938 65.127 59.938 64.2246C59.938 63.3223 60.143 62.5137 60.5532 61.7988C60.9634 61.084 61.5259 60.5274 62.2407 60.1289C62.9673 59.7305 63.7876 59.5313 64.7016 59.5313C65.4985 59.5313 66.2075 59.6895 66.8286 60.0059C67.4614 60.3106 67.9594 60.7617 68.3227 61.3594L67.3911 61.9922C67.0864 61.5352 66.6997 61.1953 66.2309 60.9727C65.7622 60.7383 65.2524 60.6211 64.7016 60.6211C64.0337 60.6211 63.4302 60.7734 62.8911 61.0781C62.3637 61.3711 61.9477 61.793 61.643 62.3438C61.3501 62.8945 61.2036 63.5215 61.2036 64.2246C61.2036 64.9395 61.3501 65.5723 61.643 66.1231C61.9477 66.6621 62.3637 67.084 62.8911 67.3887C63.4302 67.6817 64.0337 67.8281 64.7016 67.8281C65.2524 67.8281 65.7622 67.7168 66.2309 67.4942C66.6997 67.2715 67.0864 66.9317 67.3911 66.4746L68.3227 67.1074C67.9594 67.7051 67.4614 68.1621 66.8286 68.4785C66.1958 68.7832 65.4868 68.9356 64.7016 68.9356Z" fill="black"/>
<path d="M74.4519 68.9356C73.5379 68.9356 72.7176 68.7363 71.991 68.3379C71.2762 67.9395 70.7137 67.3828 70.3035 66.668C69.8933 65.9414 69.6883 65.127 69.6883 64.2246C69.6883 63.3223 69.8933 62.5137 70.3035 61.7988C70.7137 61.084 71.2762 60.5274 71.991 60.1289C72.7176 59.7305 73.5379 59.5313 74.4519 59.5313C75.2488 59.5313 75.9578 59.6895 76.5789 60.0059C77.2117 60.3106 77.7098 60.7617 78.073 61.3594L77.1414 61.9922C76.8367 61.5352 76.45 61.1953 75.9812 60.9727C75.5125 60.7383 75.0027 60.6211 74.4519 60.6211C73.784 60.6211 73.1805 60.7734 72.6414 61.0781C72.114 61.3711 71.698 61.793 71.3933 62.3438C71.1004 62.8945 70.9539 63.5215 70.9539 64.2246C70.9539 64.9395 71.1004 65.5723 71.3933 66.1231C71.698 66.6621 72.114 67.084 72.6414 67.3887C73.1805 67.6817 73.784 67.8281 74.4519 67.8281C75.0027 67.8281 75.5125 67.7168 75.9812 67.4942C76.45 67.2715 76.8367 66.9317 77.1414 66.4746L78.073 67.1074C77.7098 67.7051 77.2117 68.1621 76.5789 68.4785C75.9461 68.7832 75.2371 68.9356 74.4519 68.9356Z" fill="black"/>
<path d="M88.4213 64.6113H80.6869C80.7572 65.5723 81.1264 66.3516 81.7943 66.9492C82.4623 67.5352 83.306 67.8281 84.3256 67.8281C84.8998 67.8281 85.4271 67.7285 85.9076 67.5293C86.3881 67.3184 86.8041 67.0137 87.1557 66.6152L87.8588 67.4238C87.4486 67.916 86.933 68.291 86.3119 68.5488C85.7025 68.8067 85.0287 68.9356 84.2904 68.9356C83.3412 68.9356 82.4975 68.7363 81.7592 68.3379C81.0326 67.9277 80.4642 67.3653 80.0541 66.6504C79.6439 65.9356 79.4389 65.127 79.4389 64.2246C79.4389 63.3223 79.6322 62.5137 80.0189 61.7988C80.4174 61.084 80.9564 60.5274 81.6361 60.1289C82.3275 59.7305 83.101 59.5313 83.9564 59.5313C84.8119 59.5313 85.5795 59.7305 86.2592 60.1289C86.9389 60.5274 87.4721 61.084 87.8588 61.7988C88.2455 62.502 88.4389 63.3106 88.4389 64.2246L88.4213 64.6113ZM83.9564 60.6035C83.0658 60.6035 82.3158 60.8906 81.7064 61.4649C81.1088 62.0274 80.7689 62.7656 80.6869 63.6797H87.2435C87.1615 62.7656 86.8158 62.0274 86.2064 61.4649C85.6088 60.8906 84.8588 60.6035 83.9564 60.6035Z" fill="black"/>
<path d="M93.4575 68.9356C92.7075 68.9356 91.9868 68.8301 91.2954 68.6192C90.6157 68.3965 90.0825 68.1211 89.6958 67.793L90.2583 66.8086C90.645 67.1133 91.1314 67.3652 91.7173 67.5645C92.3032 67.752 92.9126 67.8457 93.5454 67.8457C94.3892 67.8457 95.0103 67.7168 95.4087 67.459C95.8189 67.1895 96.0239 66.8145 96.0239 66.334C96.0239 65.9942 95.9126 65.7305 95.69 65.543C95.4673 65.3438 95.1861 65.1973 94.8462 65.1035C94.5064 64.9981 94.0552 64.8984 93.4927 64.8047C92.7427 64.6641 92.1392 64.5234 91.6821 64.3828C91.2251 64.2305 90.8325 63.9785 90.5044 63.627C90.188 63.2754 90.0298 62.7891 90.0298 62.168C90.0298 61.3945 90.3521 60.7617 90.9966 60.2695C91.6411 59.7774 92.5376 59.5313 93.6861 59.5313C94.2837 59.5313 94.8814 59.6133 95.479 59.7773C96.0767 59.9297 96.5689 60.1348 96.9556 60.3926L96.4107 61.3945C95.6489 60.8672 94.7407 60.6035 93.6861 60.6035C92.8892 60.6035 92.2857 60.7441 91.8755 61.0254C91.4771 61.3066 91.2778 61.6758 91.2778 62.1328C91.2778 62.4844 91.3892 62.7656 91.6118 62.9766C91.8462 63.1875 92.1333 63.3457 92.4732 63.4512C92.813 63.5449 93.2817 63.6445 93.8794 63.75C94.6177 63.8906 95.2095 64.0313 95.6548 64.1719C96.1001 64.3125 96.481 64.5527 96.7974 64.8926C97.1138 65.2324 97.272 65.7012 97.272 66.2988C97.272 67.1074 96.9321 67.752 96.2525 68.2324C95.5845 68.7012 94.6528 68.9356 93.4575 68.9356Z" fill="black"/>
<path d="M102.058 68.9356C101.308 68.9356 100.587 68.8301 99.8955 68.6192C99.2159 68.3965 98.6826 68.1211 98.2959 67.793L98.8584 66.8086C99.2452 67.1133 99.7315 67.3652 100.317 67.5645C100.903 67.752 101.513 67.8457 102.146 67.8457C102.989 67.8457 103.61 67.7168 104.009 67.459C104.419 67.1895 104.624 66.8145 104.624 66.334C104.624 65.9942 104.513 65.7305 104.29 65.543C104.067 65.3438 103.786 65.1973 103.446 65.1035C103.106 64.9981 102.655 64.8984 102.093 64.8047C101.343 64.6641 100.739 64.5234 100.282 64.3828C99.8252 64.2305 99.4326 63.9785 99.1045 63.627C98.7881 63.2754 98.6299 62.7891 98.6299 62.168C98.6299 61.3945 98.9522 60.7617 99.5967 60.2695C100.241 59.7774 101.138 59.5313 102.286 59.5313C102.884 59.5313 103.481 59.6133 104.079 59.7773C104.677 59.9297 105.169 60.1348 105.556 60.3926L105.011 61.3945C104.249 60.8672 103.341 60.6035 102.286 60.6035C101.489 60.6035 100.886 60.7441 100.476 61.0254C100.077 61.3066 99.878 61.6758 99.878 62.1328C99.878 62.4844 99.9893 62.7656 100.212 62.9766C100.446 63.1875 100.733 63.3457 101.073 63.4512C101.413 63.5449 101.882 63.6445 102.48 63.75C103.218 63.8906 103.81 64.0313 104.255 64.1719C104.7 64.3125 105.081 64.5527 105.397 64.8926C105.714 65.2324 105.872 65.7012 105.872 66.2988C105.872 67.1074 105.532 67.752 104.853 68.2324C104.185 68.7012 103.253 68.9356 102.058 68.9356Z" fill="black"/>
<path d="M107.986 56.5429H109.463L109.199 65.1562H108.232L107.986 56.5429ZM108.724 68.9355C108.466 68.9355 108.244 68.8476 108.056 68.6718C107.88 68.4843 107.792 68.2675 107.792 68.0215C107.792 67.7636 107.88 67.5527 108.056 67.3886C108.232 67.2129 108.455 67.125 108.724 67.125C108.982 67.125 109.199 67.2129 109.375 67.3886C109.55 67.5527 109.638 67.7636 109.638 68.0215C109.638 68.2675 109.55 68.4843 109.375 68.6718C109.199 68.8476 108.982 68.9355 108.724 68.9355Z" fill="black"/>
</svg>
